<svg xmlns="http://www.w3.org/2000/svg"  viewBox="0 0 80 80" width="48px" height="48px"><path fill="#f5ce85" d="M40,77.5C19.322,77.5,2.5,60.678,2.5,40S19.322,2.5,40,2.5S77.5,19.322,77.5,40S60.678,77.5,40,77.5 z"/><path fill="#967a44" d="M40,3c20.402,0,37,16.598,37,37S60.402,77,40,77S3,60.402,3,40S19.598,3,40,3 M40,2 C19.013,2,2,19.013,2,40s17.013,38,38,38s38-17.013,38-38S60.987,2,40,2L40,2z"/><path fill="#967a44" d="M34 16H38V25.231H34zM42 16H46V25.231H42zM34 54.769H38V64H34zM42 54.769H46V64H42z"/><path fill="#967a44" d="M28,22h13.362c2.645,0,4.617,0.118,5.917,0.355c1.299,0.238,2.462,0.733,3.489,1.486 c1.026,0.753,1.881,1.756,2.565,3.009c0.684,1.252,1.025,2.655,1.025,4.211c0,1.686-0.421,3.233-1.265,4.641 c-0.844,1.409-1.988,2.465-3.431,3.168c2.037,0.639,3.602,1.728,4.697,3.266C55.453,43.675,56,45.485,56,47.563 c0,1.637-0.353,3.23-1.06,4.777c-0.707,1.547-1.672,2.783-2.895,3.708c-1.224,0.925-2.732,1.495-4.527,1.707 c-1.124,0.132-3.838,0.213-8.14,0.246H28V22z M34.749,27.991v8.325h4.423c2.63,0,4.265-0.041,4.902-0.123 c1.155-0.147,2.064-0.577,2.726-1.289c0.661-0.713,0.991-1.65,0.991-2.812c0-1.113-0.284-2.017-0.854-2.714 c-0.571-0.695-1.418-1.117-2.543-1.264c-0.669-0.082-2.592-0.123-5.769-0.123H34.749z M34.749,42.308v9.626h6.247 c2.432,0,3.975-0.074,4.629-0.221c1.004-0.197,1.821-0.675,2.452-1.437c0.63-0.761,0.946-1.78,0.946-3.057 c0-1.08-0.243-1.997-0.729-2.75s-1.189-1.301-2.109-1.646c-0.92-0.344-2.916-0.515-5.986-0.515H34.749z"/></svg>