<svg xmlns="http://www.w3.org/2000/svg"  viewBox="0 0 40 40" width="40px" height="40px"><path fill="#f5ce85" d="M20,38.5C9.799,38.5,1.5,30.201,1.5,20S9.799,1.5,20,1.5S38.5,9.799,38.5,20S30.201,38.5,20,38.5z"/><path fill="#967a44" d="M20,2c9.925,0,18,8.075,18,18s-8.075,18-18,18S2,29.925,2,20S10.075,2,20,2 M20,1 C9.507,1,1,9.507,1,20s8.507,19,19,19s19-8.507,19-19S30.493,1,20,1L20,1z"/><path fill="#967a44" d="M17 8H19V12.615H17zM21 8H23V12.615H21zM17 27.385H19V32H17zM21 27.385H23V32H21z"/><path fill="#967a44" d="M14,11h6.681c1.322,0,2.308,0.059,2.959,0.178c0.65,0.119,1.231,0.366,1.744,0.743 c0.513,0.377,0.94,0.878,1.283,1.504c0.342,0.626,0.513,1.328,0.513,2.106c0,0.843-0.211,1.617-0.633,2.32 c-0.422,0.704-0.994,1.232-1.716,1.584c1.019,0.319,1.801,0.864,2.348,1.633C27.727,21.838,28,22.742,28,23.782 c0,0.819-0.177,1.615-0.53,2.388c-0.353,0.773-0.836,1.392-1.448,1.854c-0.612,0.463-1.366,0.747-2.263,0.853 c-0.562,0.066-1.919,0.106-4.07,0.123H14V11z M17.375,13.996v4.162h2.211c1.315,0,2.132-0.02,2.451-0.061 c0.578-0.074,1.032-0.288,1.363-0.644c0.331-0.356,0.496-0.825,0.496-1.406c0-0.557-0.142-1.009-0.427-1.357 c-0.285-0.348-0.709-0.559-1.271-0.632c-0.335-0.041-1.296-0.061-2.884-0.061H17.375z M17.375,21.154v4.813h3.124 c1.216,0,1.988-0.037,2.314-0.11c0.502-0.098,0.91-0.337,1.226-0.718c0.315-0.38,0.473-0.89,0.473-1.529 c0-0.54-0.121-0.999-0.365-1.375s-0.595-0.651-1.054-0.823c-0.46-0.172-1.458-0.258-2.993-0.258H17.375z"/></svg>